<?xml version="1.0" encoding="utf-8"?>
<!-- Generator: Adobe Illustrator 25.2.1, SVG Export Plug-In . SVG Version: 6.00 Build 0)  -->
<svg version="1.1" id="Layer_1" xmlns="http://www.w3.org/2000/svg" xmlns:xlink="http://www.w3.org/1999/xlink" x="0px" y="0px"
	 viewBox="0 0 595.3 228.7" enable-background="new 0 0 595.3 228.7" xml:space="preserve">
<g>
	<g>
		<polygon fill="#1C75BC" points="381.6,77.2 381.6,77.2 377.3,65.9 374,65.9 374,79.8 376.3,79.8 376.3,68.9 376.4,68.9 
			380.5,79.8 382.6,79.8 386.8,68.9 386.8,68.9 386.8,79.8 389.1,79.8 389.1,65.9 385.8,65.9 		"/>
		<path fill="#1C75BC" d="M403.1,67.9c-0.5-0.7-1.2-1.3-2-1.7c-0.8-0.4-1.8-0.6-2.9-0.6c-1,0-1.8,0.2-2.6,0.6
			c-0.8,0.4-1.5,0.9-2,1.5c-0.6,0.7-1,1.4-1.3,2.4c-0.3,0.9-0.5,2-0.5,3.1c0,2.3,0.6,4.1,1.7,5.3c1.1,1.3,2.8,1.9,4.8,1.9
			c1.7,0,3-0.4,4-1.2c1-0.8,1.7-2,2.1-3.6h-2.2c-0.3,1.1-0.8,1.8-1.4,2.3c-0.6,0.5-1.4,0.7-2.4,0.7c-1.3,0-2.4-0.4-3.2-1.3
			c-0.8-0.8-1.2-2-1.2-3.5l0-0.2h10.4v-0.3c0-1-0.1-2-0.3-2.9C404,69.4,403.6,68.6,403.1,67.9z M394.1,71.7c0.1-1.3,0.6-2.3,1.3-3.1
			c0.7-0.8,1.7-1.1,2.8-1.1c1.1,0,2.1,0.4,2.8,1.1c0.7,0.7,1.1,1.8,1.2,3.1H394.1z"/>
		<path fill="#1C75BC" d="M418.1,65.9h-9.9v3c0,0.9-0.1,1.8-0.2,2.7c-0.1,0.9-0.2,1.7-0.4,2.5c-0.2,0.8-0.4,1.5-0.6,2.2
			c-0.2,0.7-0.4,1.2-0.6,1.5H405V84h2.2v-4.1h10.6V84h2.2v-6.2h-1.8V65.9z M415.8,77.8h-7c0.2-0.4,0.4-0.9,0.6-1.5
			c0.2-0.6,0.4-1.3,0.5-2.1c0.2-0.8,0.3-1.6,0.4-2.5c0.1-0.9,0.1-1.7,0.1-2.6V68h5.4V77.8z"/>
		<polygon fill="#1C75BC" points="424.3,77.3 424.2,77.3 424.2,65.9 421.9,65.9 421.9,79.8 424.9,79.8 431.1,68.5 431.2,68.5 
			431.2,79.8 433.4,79.8 433.4,65.9 430.5,65.9 		"/>
		<path fill="#1C75BC" d="M445.3,71.8c-0.1,0-0.3,0.1-0.6,0.2c-0.3,0.1-0.6,0.1-1,0.2c-0.4,0.1-0.7,0.1-1.1,0.2
			c-0.4,0-0.8,0.1-1.1,0.1c-0.9,0-1.5-0.2-2-0.5c-0.5-0.4-0.7-1-0.7-1.9v-4h-2.3v4.4c0,1.3,0.4,2.3,1.2,3c0.8,0.7,1.9,1,3.3,1
			c0.3,0,0.7,0,1.2-0.1c0.4-0.1,0.9-0.1,1.3-0.2c0.4-0.1,0.8-0.1,1.1-0.2c0.3-0.1,0.6-0.1,0.7-0.2v6.1h2.3V65.9h-2.3V71.8z"/>
		<polygon fill="#1C75BC" points="460.3,71.5 453.4,71.5 453.4,65.9 451.1,65.9 451.1,79.8 453.4,79.8 453.4,73.5 460.3,73.5 
			460.3,79.8 462.6,79.8 462.6,65.9 460.3,65.9 		"/>
		<polygon fill="#1C75BC" points="468.4,77.3 468.3,77.3 468.3,65.9 466,65.9 466,79.8 469,79.8 475.2,68.5 475.3,68.5 475.3,79.8 
			477.6,79.8 477.6,65.9 474.6,65.9 		"/>
		<path fill="#1C75BC" d="M486.8,64.4c1.2,0,2.1-0.4,2.8-1c0.7-0.7,1.1-1.6,1.3-2.7h-1.4c-0.2,0.6-0.5,1.2-1,1.5
			c-0.4,0.4-1,0.6-1.7,0.6c-0.7,0-1.3-0.2-1.7-0.6c-0.5-0.4-0.8-0.9-1-1.5h-1.4c0.1,1.1,0.6,2,1.3,2.7
			C484.7,64,485.7,64.4,486.8,64.4z"/>
		<polygon fill="#1C75BC" points="483.3,77.3 483.3,77.3 483.3,65.9 481,65.9 481,79.8 483.9,79.8 490.2,68.5 490.2,68.5 
			490.2,79.8 492.5,79.8 492.5,65.9 489.6,65.9 		"/>
		<polygon fill="#1C75BC" points="514.6,65.9 512.3,65.9 512.3,77.8 505.7,77.8 505.7,65.9 503.5,65.9 503.5,79.8 514.2,79.8 
			514.2,84 516.4,84 516.4,77.8 514.6,77.8 		"/>
		<path fill="#1C75BC" d="M529.1,67.9c-0.5-0.7-1.2-1.3-2-1.7c-0.8-0.4-1.8-0.6-2.9-0.6c-1,0-1.8,0.2-2.6,0.6
			c-0.8,0.4-1.5,0.9-2,1.5c-0.6,0.7-1,1.4-1.3,2.4c-0.3,0.9-0.5,2-0.5,3.1c0,2.3,0.6,4.1,1.7,5.3c1.1,1.3,2.8,1.9,4.8,1.9
			c1.7,0,3-0.4,4-1.2c1-0.8,1.7-2,2.1-3.6h-2.2c-0.3,1.1-0.8,1.8-1.4,2.3c-0.6,0.5-1.4,0.7-2.4,0.7c-1.3,0-2.4-0.4-3.2-1.3
			c-0.8-0.8-1.2-2-1.2-3.5l0-0.2h10.4v-0.3c0-1-0.1-2-0.3-2.9C530,69.4,529.6,68.6,529.1,67.9z M520.1,71.7c0.1-1.3,0.6-2.3,1.3-3.1
			c0.7-0.8,1.7-1.1,2.8-1.1c1.1,0,2.1,0.4,2.8,1.1c0.7,0.7,1.1,1.8,1.2,3.1H520.1z"/>
		<polygon fill="#1C75BC" points="542.2,71.5 535.3,71.5 535.3,65.9 533,65.9 533,79.8 535.3,79.8 535.3,73.5 542.2,73.5 
			542.2,79.8 544.5,79.8 544.5,65.9 542.2,65.9 		"/>
		<polygon fill="#1C75BC" points="546.3,68 551.3,68 551.3,79.8 553.6,79.8 553.6,68 558.6,68 558.6,65.9 546.3,65.9 		"/>
		<path fill="#1C75BC" d="M573.1,69.8c-0.3-0.9-0.7-1.7-1.3-2.3c-0.5-0.6-1.2-1.1-2-1.5c-0.8-0.3-1.7-0.5-2.6-0.5
			c-1,0-1.9,0.2-2.7,0.6c-0.8,0.4-1.4,1-2,1.8v-2h-2.2v19.2h2.3v-7.3c0.6,0.8,1.3,1.4,2,1.7c0.7,0.4,1.6,0.5,2.7,0.5
			c0.9,0,1.8-0.2,2.6-0.5c0.8-0.3,1.4-0.8,2-1.5c0.5-0.6,1-1.4,1.3-2.3c0.3-0.9,0.4-1.9,0.4-3.1S573.4,70.7,573.1,69.8z M570.1,76.8
			c-0.8,1-1.8,1.4-3.1,1.4c-1.3,0-2.4-0.5-3.2-1.4c-0.8-1-1.2-2.3-1.2-4c0-1.7,0.4-3,1.1-4c0.8-1,1.8-1.4,3.2-1.4
			c1.3,0,2.4,0.5,3.2,1.4c0.8,1,1.1,2.3,1.1,4C571.2,74.5,570.8,75.8,570.1,76.8z"/>
	</g>
	<g>
		<path fill="#00A651" d="M151.5,135.3c-8.7,3.6-52.3,26.6-58.4,44.5C120.1,177.8,142.7,159.8,151.5,135.3z"/>
		<path fill="#27AAE1" d="M114.9,51c-4-1.7-8.2-3.1-12.5-4c-11.5,20.9-61.9,26-81.5,62.6c0,1.1-0.1,2.1-0.1,3.2c0,8.1,1.4,15.8,4,23
			C45.5,87.9,94.5,95,114.9,51z"/>
		<path fill="#39B54A" d="M154.7,103.8c-28.5,25.8-74.9,28.7-84.7,73.8c4.3,1.2,8.8,2,13.4,2.3C98,153,133.9,142.4,154,126.2
			c0.9-4.4,1.4-8.9,1.4-13.5C155.4,109.7,155.1,106.7,154.7,103.8z"/>
		<path fill="#2BB673" d="M150.3,88c0-0.3,0-0.7-0.1-1.1c-1.6-3.9-3.6-7.7-6-11.2c-12.8,31.6-89.9,33-94.1,92.6
			c3.3,2.3,6.9,4.3,10.6,5.9C73.3,127.8,136.5,124.9,150.3,88z"/>
		<path fill="#1C75BC" d="M89.6,45.5c-0.5,0-1,0-1.6,0c-30.3,0-55.8,20-64.3,47.5C42.4,73.8,84.9,60.2,89.6,45.5z"/>
		<path fill="#4DC5D8" d="M41.2,161c15.5-54.7,71.7-44.4,93.7-96c-0.2-0.4-0.4-0.8-0.6-1.1c-2.3-2.2-4.8-4.2-7.4-6.1
			c-24.9,35.2-89.6,34.9-94.6,92.5C34.8,154.1,37.8,157.7,41.2,161z"/>
	</g>
	<g>
		<path fill="#00A651" d="M197.1,135.8c0-3.8,0-15.1,0-15.1s31.2,0,35,0v-19c-3.6,0-35,0-35,0s0-10.6,0-14.7c0,0,33,0,36.7,0V66.1
			h-62.4c0,4.9,0,85.8,0,90.6h63.1v-20.9C230.6,135.8,197.1,135.8,197.1,135.8z"/>
		<path fill="#2BB673" d="M336.9,158.6c-6.1,0-11.4-0.9-15.8-2.7c-4.4-1.8-8-4.3-10.9-7.5c-2.9-3.2-5-6.8-6.3-10.8
			c-1.4-4-2-8.3-2-12.7c0-6.4,1.3-12.1,3.8-17.1c2.5-5.1,6.4-9.1,11.5-12c5.1-3,11.5-4.4,19.2-4.4c5.9,0,11.1,0.9,15.4,2.6
			s8,4.1,10.9,7.2c2.9,3.1,5,6.6,6.4,10.7c1.4,4.1,2.1,8.5,2.1,13.2c0,6.4-1.3,12.2-3.9,17.3c-2.6,5.1-6.5,9.1-11.6,12
			C350.6,157.1,344.3,158.6,336.9,158.6z M336.8,139.5c2.3,0,4.2-0.7,5.7-2.1c1.5-1.4,2.7-3.2,3.4-5.4c0.7-2.2,1.1-4.6,1.1-7.2
			c0-3.1-0.4-5.8-1.3-7.9c-0.9-2.2-2.1-3.8-3.7-4.9c-1.5-1.1-3.3-1.7-5.4-1.7c-2.3,0-4.2,0.6-5.8,1.9c-1.6,1.3-2.8,3-3.6,5.2
			c-0.8,2.2-1.2,4.7-1.2,7.4c0,2.6,0.4,5,1.2,7.2c0.8,2.2,2,4,3.7,5.4S334.5,139.5,336.8,139.5z"/>
		<path fill="#4DC5D8" d="M420.2,123.5c0,0,19-27.3,21.7-31.2h-27.3c-1.4,2.6-13.6,25.2-13.6,25.2h-3.2c0-4.1,0-20.7,0-25.1
			L374,92.3c0,3,0,59.9,0,64.4h23.7c0-3.9,0-23.8,0-23.8h3.1c0,0,11.8,21.4,13.1,23.8h28.6C439.9,152.8,420.2,123.5,420.2,123.5z"/>
		<path fill="#27AAE1" d="M471.6,158.6c-6.1,0-11.4-0.9-15.8-2.7c-4.4-1.8-8-4.3-10.9-7.5c-2.9-3.2-5-6.8-6.3-10.8
			c-1.4-4-2-8.3-2-12.7c0-6.4,1.3-12.1,3.8-17.1c2.5-5.1,6.4-9.1,11.5-12c5.1-3,11.5-4.4,19.2-4.4c5.9,0,11.1,0.9,15.4,2.6
			c4.4,1.7,8,4.1,10.9,7.2c2.9,3.1,5,6.6,6.4,10.7c1.4,4.1,2.1,8.5,2.1,13.2c0,6.4-1.3,12.2-3.9,17.3c-2.6,5.1-6.5,9.1-11.6,12
			C485.3,157.1,479.1,158.6,471.6,158.6z M471.5,139.5c2.3,0,4.2-0.7,5.7-2.1c1.5-1.4,2.7-3.2,3.4-5.4c0.7-2.2,1.1-4.6,1.1-7.2
			c0-3.1-0.4-5.8-1.3-7.9c-0.9-2.2-2.1-3.8-3.7-4.9c-1.5-1.1-3.3-1.7-5.4-1.7c-2.3,0-4.2,0.6-5.8,1.9c-1.6,1.3-2.8,3-3.6,5.2
			c-0.8,2.2-1.2,4.7-1.2,7.4c0,2.6,0.4,5,1.2,7.2c0.8,2.2,2,4,3.7,5.4C467.2,138.8,469.2,139.5,471.5,139.5z"/>
		<path fill="#1C75BC" d="M571.7,107.8c-1.8-5.1-4.6-9.1-8.3-12.1c-3.6-2.9-8.1-4.4-13.4-4.5v0h-41.2c0,0,0,87.6,0,92.1h23.7
			c0-4.5,0-21.3,0-24.7h17.7v0c5.5-0.1,10-1.6,13.5-4.7c3.6-3.2,6.3-7.3,8.1-12.4c1.8-5.1,2.6-10.6,2.6-16.5
			C574.5,118.6,573.6,112.9,571.7,107.8z M549.2,131.6c-0.7,2.1-1.8,3.8-3.3,5.1c-1.3,1.2-3,1.8-4.9,1.9v0h-8.5v-27.2h8.5v0.1
			c1.9,0.1,3.5,0.7,4.8,1.8c1.5,1.2,2.6,2.9,3.3,5c0.7,2.1,1.1,4.3,1.1,6.8C550.2,127.3,549.9,129.5,549.2,131.6z"/>
		<path fill="#39B54A" d="M287.4,124c0,0,18-28.6,19.7-31.4l-26.7-0.3c-0.8,2.2-8.4,21.3-8.4,21.3h-1.7c0,0-7.8-18.9-8.8-21.2
			l-26.7-0.1c1.5,2.7,18.1,31.4,18.1,31.4s-15.7,30-17.2,33h25.9c0.8-2.3,7.6-20.5,7.6-20.5h1.5c0,0,7.4,18.4,8.3,20.5h28.2
			C304.6,152.4,287.4,124,287.4,124z"/>
	</g>
</g>
</svg>
